# xmcd
#
# Track frame offsets: 
#        150
#        28987
#        43487
#        60148
#        73185
#        93028
#        107198
#        118794
#        132518
#        153634
#
# Disc length: 2261 seconds
#
# Revision: 0
# Processed by: cddbd v1.5.2PL0 Copyright (c) Steve Scherf et al.
# Submitted via: ExactAudioCopy v0.99pb4
#
DISCID=9008d30a
DTITLE=Micke From Sweden - Waiting For The End
DYEAR=2008
DGENRE=Acoustic
TTITLE0=Waiting for the End
TTITLE1=Don't fall Underneath the Stars
TTITLE2=Stop That Bus
TTITLE3=Handcuffed
TTITLE4=Mr. Mean
TTITLE5=Mona Lisa
TTITLE6=No Exception to the Rule
TTITLE7=Little Butterfly
TTITLE8=This ol' Heart
TTITLE9=The Whistler
EXTD=
EXTT0=
EXTT1=
EXTT2=
EXTT3=
EXTT4=
EXTT5=
EXTT6=
EXTT7=
EXTT8=
EXTT9=
PLAYORDER=
